<?xml version="1.0" encoding="utf-8"?>
<!-- Generator: Adobe Illustrator 19.0.0, SVG Export Plug-In . SVG Version: 6.00 Build 0)  -->
<svg version="1.1" id="图层_1" xmlns="http://www.w3.org/2000/svg" xmlns:xlink="http://www.w3.org/1999/xlink" x="0px" y="0px"
	 viewBox="0 0 180 60" style="enable-background:new 0 0 180 60;" xml:space="preserve">
<style type="text/css">
	.st0{fill:#4461EB;}
	.st1{fill:#29DD90;}
</style>
<g id="XMLID_37_">
	<path id="XMLID_43_" d="M92,24.2h38.6v4.1h-20.3c-3.7,7.4-6.9,12.6-9.7,15.8c6.9-0.4,13.9-1.1,21-2.1c-1.4-2.6-2.9-5.1-4.5-7.5
		l3.3-2c3.8,5.6,6.8,10.7,9,15.1l-3.6,2.5c-0.9-1.9-1.6-3.4-2.1-4.4c-8.6,1.2-18,2.1-28,2.8l-1.1-4.1c0.5-0.1,0.8-0.3,1-0.4
		c2.6-2,6-7.2,10.3-15.7H92V24.2z M96.1,12.4h30.7v3.9H96.1V12.4z"/>
	<path id="XMLID_38_" d="M144.2,49.6h-4V29.9c-1.2,3.2-2.7,6.3-4.4,9.1l-1.7-4.3c2.8-3.7,4.8-7.9,6.1-12.4v-0.1H135v-3.9h5.2v-8h4v8
		h4.2v3.9h-4.2v2.6c1.4,1.8,3.1,4.3,5,7.3l-2.3,3.4c-0.9-2.1-1.8-4.1-2.7-5.8V49.6z M158.9,20.7h-8.7v-3.6h5.2
		c-1.1-2.2-2.2-4-3.3-5.5l3.7-1.2c1.2,1.7,2.2,3.5,3.2,5.5l-2.7,1.2h5.3c1.4-2.1,2.6-4.4,3.6-7.1l4,1.1c-0.9,2.2-2,4.2-3.3,6h5.8
		v11.3h-8.7v4.2h10.1c0,5.9-0.3,9.7-0.9,11.3c-0.6,1.6-2,2.5-4.1,2.5l-2.6,0l-1-3.7c1.1,0.1,2.1,0.2,3,0.2c0.9,0,1.4-0.6,1.6-1.7
		c0.2-1.3,0.3-3,0.3-5.1h-6.3v13.8h-3.9v-9.7c-2.4,3.2-5.6,6-9.6,8.3l-2.1-3.5c5.1-2.4,8.9-5.3,11.4-8.9h-8.9l1.7-11h7.5V20.7z
		 M158.9,28.4h-4.4l-0.8,4.2h5.2V28.4z M162.8,25h5.1v-4.4h-5.1V25z"/>
</g>
<g id="XMLID_25_">
	<g id="XMLID_16_">
		<path id="XMLID_36_" class="st0" d="M21.6,60c0.1,0,0.1,0,0.2,0c0.1,0,0.2,0,0.3,0h1.5v0H21.6z"/>
		<path id="XMLID_35_" class="st0" d="M61.5,17.8C59.8,7.7,50.8,0,40,0C29.2,0,20.2,7.7,18.5,17.8C8,19.4,0,28.2,0,38.8
			C0,49.9,8.8,59,20,59.9l1-7c-7.6-0.4-13.7-6.6-13.7-14.1c0-7.8,6.5-14.1,14.4-14.1h3.7l0-3.5c0.1-7.7,6.6-14,14.5-14
			c8,0,14.5,6.3,14.5,14l0,3.5h3.7c8,0.1,14.4,6.4,14.4,14.1c0,7.5-6.1,13.7-13.7,14.1l1,7C71.1,59,80,49.8,80,38.8
			C80,28.2,72,19.4,61.5,17.8z"/>
		<path id="XMLID_34_" class="st0" d="M57.9,60c0.1,0,0.2,0,0.3,0c0.1,0,0.2,0,0.3,0l0,0H57.9z"/>
	</g>
	<g id="XMLID_26_">
		<polygon id="XMLID_29_" class="st1" points="30.9,60 23.6,60 28.2,26.4 34.5,26.4 		"/>
		<polygon id="XMLID_28_" class="st1" points="56.4,60 49.1,60 45.5,26.4 51.8,26.4 		"/>
		<rect id="XMLID_15_" x="29.1" y="45.9" class="st1" width="21.8" height="7.1"/>
		<rect id="XMLID_14_" x="29.1" y="33.5" class="st1" width="21.8" height="5.3"/>
	</g>
</g>
</svg>
